<svg width="18" height="18" viewBox="0 0 18 18" fill="none" xmlns="http://www.w3.org/2000/svg">
<path d="M17.25 12C16.6701 11.9499 16.1264 11.6967 15.7149 11.2851C15.3033 10.8736 15.0501 10.3299 15 9.75V6C15 4.4087 14.3679 2.88258 13.2426 1.75736C12.1174 0.632141 10.5913 0 9 0C7.4087 0 5.88258 0.632141 4.75736 1.75736C3.63214 2.88258 3 4.4087 3 6V9.75C2.94989 10.3299 2.69674 10.8736 2.28515 11.2851C1.87355 11.6967 1.32992 11.9499 0.75 12C0.551088 12 0.360322 12.079 0.21967 12.2197C0.0790176 12.3603 0 12.5511 0 12.75C0 12.9489 0.0790176 13.1397 0.21967 13.2803C0.360322 13.421 0.551088 13.5 0.75 13.5H17.25C17.4489 13.5 17.6397 13.421 17.7803 13.2803C17.921 13.1397 18 12.9489 18 12.75C18 12.5511 17.921 12.3603 17.7803 12.2197C17.6397 12.079 17.4489 12 17.25 12Z" fill="white"/>
<path d="M9 18C9.79565 18 10.5587 17.6839 11.1213 17.1213C11.6839 16.5587 12 15.7956 12 15H6C6 15.7956 6.31607 16.5587 6.87868 17.1213C7.44129 17.6839 8.20435 18 9 18Z" fill="white"/>
</svg>
