<svg width="12" height="12" viewBox="0 0 12 12" fill="none" xmlns="http://www.w3.org/2000/svg">
<path d="M11.985 2.397L11.9767 2.3955C11.9827 2.346 12 2.30175 12 2.25C12 0.0630001 6.6135 0 6 0C5.3865 0 0 0.0630001 0 2.25C0 2.30175 0.01725 2.346 0.02325 2.3955L0.015 2.397L1.50225 9.83625C1.58775 11.322 3.87375 12 6 12C8.12625 12 10.4122 11.322 10.4977 9.837L11.985 2.397ZM6 1.5C8.35275 1.5 9.86625 1.938 10.3717 2.25C9.86625 2.562 8.35275 3 6 3C3.64725 3 2.13375 2.562 1.62825 2.25C2.13375 1.938 3.64725 1.5 6 1.5Z" fill="black"/>
</svg>
