<svg width="32" height="32" viewBox="0 0 32 32" fill="none" xmlns="http://www.w3.org/2000/svg">
<rect x="1" y="1" width="30" height="30" rx="15" stroke="black" stroke-width="2"/>
<path d="M11 12.8184H12.8182" stroke="black" stroke-width="2" stroke-linecap="round" stroke-linejoin="round"/>
<path d="M18.2727 12.8184H21" stroke="black" stroke-width="2" stroke-linecap="round" stroke-linejoin="round"/>
<path d="M14.6363 14.6364C15.6405 14.6364 16.4545 13.8223 16.4545 12.8182C16.4545 11.814 15.6405 11 14.6363 11C13.6321 11 12.8181 11.814 12.8181 12.8182C12.8181 13.8223 13.6321 14.6364 14.6363 14.6364Z" stroke="black" stroke-width="2" stroke-linecap="round" stroke-linejoin="round"/>
<path d="M21.0001 19.1816H19.1819" stroke="black" stroke-width="2" stroke-linecap="round" stroke-linejoin="round"/>
<path d="M13.7273 19.1816H11" stroke="black" stroke-width="2" stroke-linecap="round" stroke-linejoin="round"/>
<path d="M17.3636 21.0001C18.3677 21.0001 19.1818 20.1861 19.1818 19.182C19.1818 18.1778 18.3677 17.3638 17.3636 17.3638C16.3594 17.3638 15.5454 18.1778 15.5454 19.182C15.5454 20.1861 16.3594 21.0001 17.3636 21.0001Z" stroke="black" stroke-width="2" stroke-linecap="round" stroke-linejoin="round"/>
</svg>
