<svg width="18" height="14" viewBox="0 0 18 14" fill="none" xmlns="http://www.w3.org/2000/svg">
<path opacity="0.2" d="M17.2645 5.00009C16.3822 5.00416 13.1627 5.19259 10.7677 7.59381C9.76141 8.51974 9.14648 9.57191 8.75 10.5582C8.35352 9.57191 7.73859 8.51974 6.73234 7.59381C4.33733 5.19259 1.11776 5.00416 0.23547 5.00009C0.101486 4.99947 -0.0012046 5.10634 1.06749e-05 5.24447C0.00699851 6.11696 0.216937 9.18629 2.69701 11.4725C5.2497 14.0294 7.77778 14 8.75 14C9.72222 14 12.2497 14.0297 14.803 11.4725C17.2834 9.18598 17.493 6.11696 17.5 5.24447C17.5012 5.10634 17.3985 4.99947 17.2645 5.00009ZM8.74939 8.4563C9.13889 7.86725 9.58793 7.33819 10.0889 6.87757C10.6689 6.29602 11.2914 5.83696 11.9197 5.46571C11.4203 3.26262 10.3484 1.30795 8.9809 0.0839052C8.85603 -0.0279684 8.64609 -0.0279684 8.52092 0.0839052C7.15404 1.30702 6.08216 3.2598 5.58177 5.46103C6.20065 5.82665 6.81224 6.27789 7.38099 6.8482C7.8987 7.32532 8.35819 7.8653 8.74939 8.4563Z" fill="black"/>
<mask id="mask0" mask-type="alpha" maskUnits="userSpaceOnUse" x="0" y="0" width="18" height="14">
<path d="M17.2645 5.00009C16.3822 5.00416 13.1627 5.19259 10.7677 7.59381C9.76141 8.51974 9.14648 9.57191 8.75 10.5582C8.35352 9.57191 7.73859 8.51974 6.73234 7.59381C4.33733 5.19259 1.11776 5.00416 0.23547 5.00009C0.101486 4.99947 -0.0012046 5.10634 1.06749e-05 5.24447C0.00699851 6.11696 0.216937 9.18629 2.69701 11.4725C5.2497 14.0294 7.77778 14 8.75 14C9.72222 14 12.2497 14.0297 14.803 11.4725C17.2834 9.18598 17.493 6.11696 17.5 5.24447C17.5012 5.10634 17.3985 4.99947 17.2645 5.00009ZM8.74939 8.4563C9.13889 7.86725 9.58793 7.33819 10.0889 6.87757C10.6689 6.29602 11.2914 5.83696 11.9197 5.46571C11.4203 3.26262 10.3484 1.30795 8.9809 0.0839052C8.85603 -0.0279684 8.64609 -0.0279684 8.52092 0.0839052C7.15404 1.30702 6.08216 3.2598 5.58177 5.46103C6.20065 5.82665 6.81224 6.27789 7.38099 6.8482C7.8987 7.32532 8.35819 7.8653 8.74939 8.4563Z" fill="black"/>
</mask>
<g mask="url(#mask0)">
<rect y="10" width="18" height="4" fill="black"/>
</g>
</svg>
