<svg width="21" height="24" viewBox="0 0 21 24" fill="none" xmlns="http://www.w3.org/2000/svg">
<g opacity="0.6">
<path d="M10.4999 5.21739C11.9497 5.21739 13.1249 4.04944 13.1249 2.6087C13.1249 1.16795 11.9497 0 10.4999 0C9.05019 0 7.87494 1.16795 7.87494 2.6087C7.87494 4.04944 9.05019 5.21739 10.4999 5.21739Z" fill="white"/>
<path opacity="0.4" d="M19.95 6.26074H1.05C0.771523 6.26074 0.504451 6.37068 0.307538 6.56637C0.110625 6.76206 0 7.02747 0 7.30422C0 7.58097 0.110625 7.84638 0.307538 8.04207C0.504451 8.23776 0.771523 8.3477 1.05 8.3477H7.35V22.6955C7.35 23.0415 7.48828 23.3732 7.73442 23.6178C7.98056 23.8625 8.3144 23.9999 8.6625 23.9999C9.0106 23.9999 9.34444 23.8625 9.59058 23.6178C9.83672 23.3732 9.975 23.0415 9.975 22.6955V15.1303H13.8432L11.9621 18.699C11.8006 19.0055 11.7682 19.3632 11.8721 19.6934C11.976 20.0237 12.2076 20.2994 12.516 20.4599C12.8244 20.6204 13.1844 20.6526 13.5166 20.5493C13.8489 20.4461 14.1264 20.2159 14.2879 19.9094L17.1754 14.4312C17.2802 14.2324 17.3316 14.01 17.3246 13.7857C17.3176 13.5614 17.2525 13.3426 17.1356 13.1506C17.0187 12.9586 16.8539 12.7998 16.6571 12.6896C16.4604 12.5795 16.2383 12.5216 16.0125 12.5216H13.65V8.3477H19.95C20.2285 8.3477 20.4955 8.23776 20.6925 8.04207C20.8894 7.84638 21 7.58097 21 7.30422C21 7.02747 20.8894 6.76206 20.6925 6.56637C20.4955 6.37068 20.2285 6.26074 19.95 6.26074Z" fill="white"/>
</g>
</svg>
