<svg width="32" height="32" viewBox="0 0 32 32" fill="none" xmlns="http://www.w3.org/2000/svg">
<rect x="1" y="1" width="30" height="30" rx="15" stroke="black" stroke-width="2"/>
<path d="M13 11L15 13H13.5C12.5717 13 11.6815 13.3687 11.0251 14.0251C10.3687 14.6815 10 15.5717 10 16.5V16.5C10 17.4283 10.3687 18.3185 11.0251 18.9749C11.6815 19.6313 12.5717 20 13.5 20H14" stroke="black" stroke-width="2" stroke-linecap="round" stroke-linejoin="round"/>
<path d="M19 22L17 20H18.5C19.4283 20 20.3185 19.6313 20.9749 18.9749C21.6313 18.3185 22 17.4283 22 16.5C22 15.5717 21.6313 14.6815 20.9749 14.0251C20.3185 13.3687 19.4283 13 18.5 13H18" stroke="black" stroke-width="2" stroke-linecap="round" stroke-linejoin="round"/>
</svg>
