<svg width="24" height="24" viewBox="0 0 24 24" fill="none" xmlns="http://www.w3.org/2000/svg">
<path d="M0 9V21.75C0 22.3467 0.270918 22.919 0.753154 23.341C1.23539 23.7629 1.88944 24 2.57143 24H21.4286C22.1106 24 22.7646 23.7629 23.2468 23.341C23.7291 22.919 24 22.3467 24 21.75V9H0ZM17.3641 15.652C17.3439 15.7751 17.2773 15.8888 17.175 15.975L15.0536 17.7844L15.5571 20.3438C15.5767 20.4469 15.5631 20.5529 15.5176 20.6497C15.4722 20.7464 15.3969 20.8302 15.3 20.8915C15.2032 20.9529 15.0887 20.9894 14.9695 20.997C14.8502 21.0045 14.7309 20.9829 14.625 20.9344L12 19.725L9.38036 20.9344C9.27442 20.9829 9.15513 21.0045 9.03588 20.997C8.91664 20.9894 8.80217 20.9529 8.70533 20.8915C8.6085 20.8302 8.53314 20.7464 8.48772 20.6497C8.4423 20.5529 8.42862 20.4469 8.44821 20.3438L8.95179 17.7844L6.83036 15.975C6.74401 15.902 6.68278 15.8092 6.65361 15.7073C6.62443 15.6053 6.62847 15.4983 6.66528 15.3982C6.70209 15.2982 6.77018 15.2092 6.86185 15.1413C6.95352 15.0734 7.0651 15.0293 7.18393 15.0141L10.1143 14.6391L11.4268 12.3141C11.48 12.2202 11.5621 12.1412 11.6638 12.086C11.7656 12.0308 11.8829 12.0015 12.0027 12.0015C12.1224 12.0015 12.2398 12.0308 12.3415 12.086C12.4433 12.1412 12.5254 12.2202 12.5786 12.3141L13.8911 14.6391L16.8214 15.0141C16.9901 15.0357 17.142 15.1151 17.2437 15.2347C17.3455 15.3544 17.3888 15.5045 17.3641 15.652ZM16.2857 6H18C18.2273 6 18.4453 5.92098 18.6061 5.78033C18.7668 5.63968 18.8571 5.44891 18.8571 5.25V0.75C18.8571 0.551088 18.7668 0.360322 18.6061 0.21967C18.4453 0.0790176 18.2273 0 18 0L16.2857 0C16.0584 0 15.8404 0.0790176 15.6796 0.21967C15.5189 0.360322 15.4286 0.551088 15.4286 0.75V5.25C15.4286 5.44891 15.5189 5.63968 15.6796 5.78033C15.8404 5.92098 16.0584 6 16.2857 6ZM6 6H7.71429C7.94161 6 8.15963 5.92098 8.32038 5.78033C8.48112 5.63968 8.57143 5.44891 8.57143 5.25V0.75C8.57143 0.551088 8.48112 0.360322 8.32038 0.21967C8.15963 0.0790176 7.94161 0 7.71429 0L6 0C5.77267 0 5.55465 0.0790176 5.39391 0.21967C5.23316 0.360322 5.14286 0.551088 5.14286 0.75V5.25C5.14286 5.44891 5.23316 5.63968 5.39391 5.78033C5.55465 5.92098 5.77267 6 6 6Z" fill="#7FDEBF"/>
<path opacity="0.4" d="M16.8214 15.0141L13.8911 14.6391L12.5786 12.3141C12.5254 12.2202 12.4433 12.1412 12.3415 12.086C12.2398 12.0308 12.1224 12.0015 12.0027 12.0015C11.8829 12.0015 11.7656 12.0308 11.6638 12.086C11.5621 12.1412 11.48 12.2202 11.4268 12.3141L10.1143 14.6391L7.18393 15.0141C7.0651 15.0293 6.95352 15.0734 6.86185 15.1413C6.77018 15.2092 6.70209 15.2982 6.66528 15.3982C6.62847 15.4983 6.62443 15.6053 6.65361 15.7073C6.68278 15.8092 6.74401 15.902 6.83036 15.975L8.95179 17.7844L8.44821 20.3438C8.42862 20.4469 8.4423 20.5529 8.48772 20.6497C8.53314 20.7464 8.6085 20.8302 8.70533 20.8915C8.80217 20.9529 8.91664 20.9894 9.03588 20.997C9.15513 21.0045 9.27442 20.9829 9.38036 20.9344L12 19.725L14.625 20.9344C14.7309 20.9829 14.8502 21.0045 14.9695 20.997C15.0887 20.9894 15.2032 20.9529 15.3 20.8915C15.3969 20.8302 15.4722 20.7464 15.5176 20.6497C15.5631 20.5529 15.5767 20.4469 15.5571 20.3438L15.0536 17.7844L17.175 15.975C17.2613 15.902 17.3226 15.8092 17.3518 15.7073C17.3809 15.6053 17.3769 15.4983 17.3401 15.3982C17.3033 15.2982 17.2352 15.2092 17.1435 15.1413C17.0518 15.0734 16.9403 15.0293 16.8214 15.0141ZM21.4286 3H18.8571V5.25C18.8571 5.44891 18.7668 5.63968 18.6061 5.78033C18.4453 5.92098 18.2273 6 18 6H16.2857C16.0584 6 15.8404 5.92098 15.6796 5.78033C15.5189 5.63968 15.4286 5.44891 15.4286 5.25V3H8.57143V5.25C8.57143 5.44891 8.48112 5.63968 8.32038 5.78033C8.15963 5.92098 7.94161 6 7.71429 6H6C5.77267 6 5.55465 5.92098 5.39391 5.78033C5.23316 5.63968 5.14286 5.44891 5.14286 5.25V3H2.57143C1.88944 3 1.23539 3.23705 0.753154 3.65901C0.270918 4.08097 0 4.65326 0 5.25L0 9H24V5.25C24 4.65326 23.7291 4.08097 23.2468 3.65901C22.7646 3.23705 22.1106 3 21.4286 3Z" fill="#7FDEBF"/>
</svg>
