<svg width="30" height="24" viewBox="0 0 30 24" fill="none" xmlns="http://www.w3.org/2000/svg">
<path opacity="0.4" d="M20.4338 9.37013C19.2926 10.0374 18.2381 10.8504 17.2953 11.79C16.4259 12.5926 15.6551 13.5015 15 14.4964C14.3301 13.4835 13.5431 12.558 12.6563 11.7401C11.7297 10.817 10.6934 10.018 9.57196 9.3621C10.4298 5.58799 12.2672 2.2403 14.6104 0.144053C14.7219 0.0508697 14.8611 0 15.0047 0C15.1483 0 15.2876 0.0508697 15.399 0.144053C17.7401 2.24191 19.5776 5.59334 20.4338 9.37013Z" fill="#7FDEBF"/>
<path d="M29.9998 8.9903C29.9879 10.486 29.6285 15.7478 25.3765 19.6671C20.9994 24.0535 16.6667 24 15 24C13.3334 24 8.99955 24.0535 4.62356 19.6671C0.372039 15.75 0.0121473 10.486 0.000168227 8.9903C-0.00139495 8.93517 0.00794932 8.88028 0.0276339 8.82898C0.0473186 8.77767 0.0769331 8.73101 0.11468 8.69184C0.152427 8.65266 0.19752 8.62178 0.247221 8.60107C0.296923 8.58036 0.350197 8.57026 0.40381 8.57137C1.91421 8.57834 7.43498 8.90137 11.5412 13.0178C13.2662 14.6057 14.3229 16.4089 15 18.0996C15.6797 16.4089 16.7338 14.6057 18.4588 13.0183C22.5645 8.90191 28.0837 8.57887 29.5962 8.57191C29.6498 8.5708 29.703 8.58089 29.7527 8.60156C29.8023 8.62224 29.8474 8.65307 29.8851 8.69219C29.9229 8.73131 29.9525 8.7779 29.9722 8.82914C29.9919 8.88038 30.0013 8.93521 29.9998 8.9903Z" fill="#7FDEBF"/>
</svg>
