<svg width="14" height="12" viewBox="0 0 14 12" fill="none" xmlns="http://www.w3.org/2000/svg">
<g clip-path="url(#clip0)">
<path d="M5.95 4.49785C5.565 4.49785 5.25 4.83535 5.25 5.24785V7.12285C5.25 7.33004 5.09337 7.49785 4.9 7.49785C4.70662 7.49785 4.55 7.33004 4.55 7.12285V5.32871C4.55 4.92113 4.65325 4.52082 4.84947 4.17113L6.55025 1.13386C6.74909 0.77855 6.64191 0.318003 6.31028 0.104722C5.99419 -0.0984816 5.59453 0.00394033 5.38497 0.320581C5.38059 0.325972 5.37141 0.325503 5.36769 0.331831L2.80262 4.45449C2.57162 4.82574 2.45 5.25722 2.45 5.70207V7.58246L0.478625 8.28652C0.339231 8.33621 0.217978 8.43167 0.132067 8.55935C0.0461562 8.68703 -5.10313e-05 8.84045 4.22938e-08 8.99785V11.2478C4.22938e-08 11.5014 0.186375 11.9978 0.7 11.9978C0.758844 11.9978 0.818344 11.9899 0.876313 11.9737L4.79609 10.8811C5.88788 10.5466 6.65 9.46402 6.65 8.24785V5.24785C6.65 4.83535 6.335 4.49785 5.95 4.49785ZM13.5214 8.2884L11.55 7.58433V5.70394C11.55 5.2591 11.4284 4.82761 11.1974 4.45636L8.63231 0.33394C8.62838 0.327612 8.61941 0.328315 8.61503 0.32269C8.40547 0.00604971 8.00581 -0.0963722 7.68972 0.106831C7.35809 0.319878 7.25091 0.780659 7.44975 1.13597L9.15053 4.17324C9.34675 4.52293 9.45 4.92324 9.45 5.33082V7.12496C9.45 7.33215 9.29338 7.49996 9.1 7.49996C8.90662 7.49996 8.75 7.33215 8.75 7.12496V5.24996C8.75 4.83746 8.435 4.49996 8.05 4.49996C7.665 4.49996 7.35 4.83746 7.35 5.24996V8.24996C7.35 9.46613 8.11212 10.5487 9.20391 10.8829L13.1237 11.9756C13.1819 11.9918 13.2414 11.9997 13.3 11.9997C13.8136 11.9997 14 11.5033 14 11.2497V8.99972C14 8.67699 13.8073 8.39058 13.5214 8.2884Z" fill="black"/>
</g>
<defs>
<clipPath id="clip0">
<rect width="14" height="12" fill="white"/>
</clipPath>
</defs>
</svg>
