<svg width="32" height="32" viewBox="0 0 32 32" fill="none" xmlns="http://www.w3.org/2000/svg">
<rect opacity="0.4" x="1" y="1" width="30" height="30" rx="15" stroke="black" stroke-width="2"/>
<g opacity="0.4">
<path d="M19.99 13.598L19.9845 13.597C19.9885 13.564 20 13.5345 20 13.5C20 12.042 16.409 12 16 12C15.591 12 12 12.042 12 13.5C12 13.5345 12.0115 13.564 12.0155 13.597L12.01 13.598L13.0015 18.5575C13.0585 19.548 14.5825 20 16 20C17.4175 20 18.9415 19.548 18.9985 18.558L19.99 13.598ZM16 13C17.5685 13 18.5775 13.292 18.9145 13.5C18.5775 13.708 17.5685 14 16 14C14.4315 14 13.4225 13.708 13.0855 13.5C13.4225 13.292 14.4315 13 16 13Z" fill="black"/>
</g>
</svg>
