<svg width="13" height="14" viewBox="0 0 13 14" fill="none" xmlns="http://www.w3.org/2000/svg">
<path d="M6.125 3.04348C6.97069 3.04348 7.65625 2.36217 7.65625 1.52174C7.65625 0.681306 6.97069 0 6.125 0C5.27931 0 4.59375 0.681306 4.59375 1.52174C4.59375 2.36217 5.27931 3.04348 6.125 3.04348Z" fill="black"/>
<path d="M11.6375 3.6521H0.6125C0.450055 3.6521 0.294263 3.71623 0.179397 3.83038C0.0645311 3.94454 0 4.09936 0 4.2608C0 4.42223 0.0645311 4.57706 0.179397 4.69121C0.294263 4.80536 0.450055 4.86949 0.6125 4.86949H4.2875V13.2391C4.2875 13.4409 4.36816 13.6344 4.51175 13.7771C4.65533 13.9198 4.85007 13.9999 5.05313 13.9999C5.25618 13.9999 5.45092 13.9198 5.5945 13.7771C5.73809 13.6344 5.81875 13.4409 5.81875 13.2391V8.82601H8.0752L6.97791 10.9078C6.88369 11.0865 6.8648 11.2952 6.92539 11.4878C6.98598 11.6805 7.12109 11.8413 7.301 11.9349C7.48091 12.0286 7.69088 12.0473 7.88471 11.9871C8.07855 11.9269 8.24038 11.7926 8.3346 11.6138L10.019 8.41819C10.0801 8.30221 10.1101 8.17252 10.106 8.04167C10.1019 7.91081 10.064 7.7832 9.99577 7.6712C9.92756 7.55919 9.83142 7.46657 9.71665 7.40229C9.60188 7.33801 9.47237 7.30425 9.34063 7.30427H7.9625V4.86949H11.6375C11.7999 4.86949 11.9557 4.80536 12.0706 4.69121C12.1855 4.57706 12.25 4.42223 12.25 4.2608C12.25 4.09936 12.1855 3.94454 12.0706 3.83038C11.9557 3.71623 11.7999 3.6521 11.6375 3.6521Z" fill="black"/>
</svg>
