<svg width="14" height="14" viewBox="0 0 14 14" fill="none" xmlns="http://www.w3.org/2000/svg">
<circle cx="7" cy="7" r="7" fill="black"/>
<g clip-path="url(#clip0)">
<path d="M9.00838 6.84661L5.50838 4.92161C5.48153 4.90667 5.45122 4.89907 5.4205 4.89956C5.38978 4.90005 5.35973 4.90862 5.33338 4.92441C5.30751 4.94007 5.28615 4.96216 5.27137 4.98854C5.25658 5.01492 5.24889 5.04467 5.24903 5.07491V8.92491C5.24907 8.95531 5.25703 8.98518 5.27213 9.01157C5.28722 9.03796 5.30894 9.05996 5.33513 9.07541C5.36197 9.09152 5.39271 9.09999 5.42403 9.09991C5.45352 9.0999 5.48254 9.09243 5.50838 9.07821L9.00838 7.15321C9.03581 7.1381 9.05869 7.11591 9.07463 7.08894C9.09056 7.06198 9.09897 7.03123 9.09897 6.99991C9.09897 6.96859 9.09056 6.93784 9.07463 6.91087C9.05869 6.88391 9.03581 6.86171 9.00838 6.84661Z" fill="white"/>
</g>
<defs>
<clipPath id="clip0">
<rect width="4.2" height="4.2" fill="white" transform="translate(4.89941 4.8999)"/>
</clipPath>
</defs>
</svg>
