<svg width="24" height="24" viewBox="0 0 24 24" fill="none" xmlns="http://www.w3.org/2000/svg">
<g opacity="0.6">
<path opacity="0.4" d="M23.8692 12.8906C22.8877 10.6819 21.5986 5.77828 20.4436 4.13672C19.5438 2.85886 18.3501 1.81601 16.9629 1.09608C15.5757 0.37615 14.0358 0.000228353 12.473 0L9 0C4.03125 0 1.41692e-07 4.03125 1.41692e-07 9C-0.000224617 10.2643 0.266947 11.5144 0.783977 12.6682C1.30101 13.822 2.0562 14.8534 3 15.6947V24H15V21H18C18.7956 21 19.5587 20.6839 20.1213 20.1213C20.6839 19.5587 21 18.7956 21 18V15H22.5C22.7498 14.9998 22.9956 14.9371 23.2151 14.8178C23.4345 14.6985 23.6207 14.5262 23.7568 14.3167C23.8928 14.1072 23.9743 13.867 23.9939 13.6179C24.0136 13.3689 23.9707 13.1189 23.8692 12.8906ZM15.75 9.75H13.3622C13.4509 9.99022 13.4975 10.2439 13.5 10.5C13.5 11.0967 13.2629 11.669 12.841 12.091C12.419 12.5129 11.8467 12.75 11.25 12.75C10.9939 12.7475 10.7402 12.7009 10.5 12.6122V15H7.5V12.6122C7.25979 12.7009 7.00606 12.7475 6.75 12.75C6.15326 12.75 5.58097 12.5129 5.15901 12.091C4.73705 11.669 4.5 11.0967 4.5 10.5C4.5 10.4531 4.51078 10.4114 4.51359 10.3664C4.01108 10.1933 3.58629 9.84754 3.31486 9.39059C3.04342 8.93365 2.94296 8.3952 3.03134 7.87112C3.11973 7.34704 3.39124 6.87133 3.79753 6.52868C4.20381 6.18603 4.71852 5.99869 5.25 6C5.25 5.40326 5.48705 4.83097 5.90901 4.40901C6.33097 3.98705 6.90326 3.75 7.5 3.75C7.88752 3.75217 8.26774 3.85558 8.60297 4.05C8.80436 3.72864 9.08408 3.4637 9.4159 3.28006C9.74772 3.09641 10.1208 3.00006 10.5 3.00006C10.8792 3.00006 11.2523 3.09641 11.5841 3.28006C11.9159 3.4637 12.1956 3.72864 12.397 4.05C12.6809 3.88532 12.9977 3.78559 13.3247 3.75798C13.6517 3.73037 13.9807 3.77556 14.2882 3.89031C14.5956 4.00505 14.8738 4.1865 15.1027 4.4216C15.3317 4.65671 15.5056 4.93962 15.6122 5.25H15.75C16.3467 5.25 16.919 5.48705 17.341 5.90901C17.7629 6.33097 18 6.90326 18 7.5C18 8.09674 17.7629 8.66903 17.341 9.09099C16.919 9.51295 16.3467 9.75 15.75 9.75Z" fill="#7FDEBF"/>
<path d="M3.12236 7.51353C3.27487 7.07087 3.56198 6.68697 3.94349 6.41557C4.325 6.14417 4.78182 5.99884 5.25002 5.99994C5.25002 5.4032 5.48707 4.8309 5.90903 4.40895C6.33098 3.98699 6.90328 3.74994 7.50002 3.74994C7.88754 3.7521 8.26776 3.85552 8.60299 4.04994C8.80437 3.72858 9.0841 3.46364 9.41592 3.27999C9.74773 3.09634 10.1208 3 10.5 3C10.8793 3 11.2523 3.09634 11.5841 3.27999C11.9159 3.46364 12.1957 3.72858 12.397 4.04994C12.6809 3.88526 12.9977 3.78553 13.3247 3.75792C13.6517 3.73031 13.9807 3.7755 14.2882 3.89024C14.5956 4.00499 14.8738 4.18644 15.1027 4.42154C15.3317 4.65665 15.5057 4.93956 15.6122 5.24994H15.75C16.3468 5.24994 16.9191 5.48699 17.341 5.90895C17.763 6.3309 18 6.9032 18 7.49994C18 8.09667 17.763 8.66897 17.341 9.09093C16.9191 9.51289 16.3468 9.74994 15.75 9.74994H13.3622C13.4509 9.99015 13.4976 10.2439 13.5 10.4999C13.5 11.0967 13.263 11.669 12.841 12.0909C12.4191 12.5129 11.8468 12.7499 11.25 12.7499C10.994 12.7475 10.7402 12.7008 10.5 12.6121V14.9999H7.50002V12.6121C7.2598 12.7008 7.00608 12.7475 6.75002 12.7499C6.15328 12.7499 5.58098 12.5129 5.15903 12.0909C4.73707 11.669 4.50002 11.0967 4.50002 10.4999C4.50002 10.4531 4.5108 10.4113 4.51361 10.3663C3.95082 10.1725 3.48807 9.76307 3.22716 9.22807C2.96625 8.69307 2.92856 8.07633 3.12236 7.51353Z" fill="#7FDEBF"/>
</g>
</svg>
