<svg width="21" height="24" viewBox="0 0 21 24" fill="none" xmlns="http://www.w3.org/2000/svg">
<path d="M10.4999 5.21739C11.9497 5.21739 13.1249 4.04944 13.1249 2.6087C13.1249 1.16795 11.9497 0 10.4999 0C9.05019 0 7.87494 1.16795 7.87494 2.6087C7.87494 4.04944 9.05019 5.21739 10.4999 5.21739Z" fill="#7FDEBF"/>
<path opacity="0.4" d="M19.95 6.26086H1.05C0.771523 6.26086 0.504451 6.3708 0.307538 6.56649C0.110625 6.76218 0 7.02759 0 7.30434C0 7.58109 0.110625 7.8465 0.307538 8.04219C0.504451 8.23788 0.771523 8.34782 1.05 8.34782H7.35V22.6956C7.35 23.0416 7.48828 23.3733 7.73442 23.618C7.98056 23.8626 8.3144 24 8.6625 24C9.0106 24 9.34444 23.8626 9.59058 23.618C9.83672 23.3733 9.975 23.0416 9.975 22.6956V15.1304H13.8432L11.9621 18.6991C11.8006 19.0056 11.7682 19.3633 11.8721 19.6936C11.976 20.0238 12.2076 20.2995 12.516 20.46C12.8244 20.6205 13.1844 20.6527 13.5166 20.5495C13.8489 20.4462 14.1264 20.2161 14.2879 19.9096L17.1754 14.4313C17.2802 14.2325 17.3316 14.0102 17.3246 13.7858C17.3176 13.5615 17.2525 13.3428 17.1356 13.1507C17.0187 12.9587 16.8539 12.8 16.6571 12.6898C16.4604 12.5796 16.2383 12.5217 16.0125 12.5217H13.65V8.34782H19.95C20.2285 8.34782 20.4955 8.23788 20.6925 8.04219C20.8894 7.8465 21 7.58109 21 7.30434C21 7.02759 20.8894 6.76218 20.6925 6.56649C20.4955 6.3708 20.2285 6.26086 19.95 6.26086Z" fill="#7FDEBF"/>
</svg>
