<svg width="92" height="21" viewBox="0 0 92 21" fill="none" xmlns="http://www.w3.org/2000/svg">
<g clip-path="url(#clip0)">
<path d="M37.8671 3.13152H35.2425V3.89175C35.2425 3.89175 35.7493 3.90985 36.057 4.18136C36.3828 4.48908 36.4371 4.79679 36.7811 5.88284C37.125 6.96889 40.7089 18.0285 40.7089 18.0285H41.4692L44.7092 6.37156L48.4923 18.0466H49.2344L53.4881 3.13152H52.7098L49.343 15.0419L45.4694 2.91431H44.9083L41.5054 15.1324L37.8671 3.13152Z" fill="black"/>
<path d="M70.6839 3.13147H67.824V3.9098C68.6204 3.94601 68.8557 4.10891 68.8557 5.12256C68.8557 6.53442 68.8557 17.7207 68.8557 17.7207H70.6839V10.6071C72.0234 11.9647 74.3222 14.8246 75.734 15.9649C76.802 16.8519 78.1052 17.8293 79.318 17.8293C79.8972 17.8293 80.1144 17.8293 80.1144 17.8293V16.9786C80.1144 16.9786 80.0239 16.9786 79.8791 16.9786C79.1189 16.9786 77.4898 15.3495 76.1865 13.9376C73.7791 11.313 72.7112 9.79256 71.788 9.39435L78.5577 3.13147H77.4898L70.6839 9.46675V3.13147Z" fill="black"/>
<path d="M64.9277 16.0374C64.62 15.2952 60.0405 2.80566 60.0405 2.80566H59.5156L54.4474 17.7207H55.2619L56.9272 12.7068H61.742L63.5702 17.7207H66.231V16.9062C65.4165 16.9967 65.1268 16.5261 64.9277 16.0374ZM57.1625 11.9828L59.2622 5.68369L61.4886 11.9828H57.1625Z" fill="black"/>
<path d="M81.8522 3.1134V3.89174C82.2142 3.90984 82.8839 3.89174 82.8839 4.79678C82.8839 5.64752 82.8839 17.7027 82.8839 17.7027H90.9026L91.0474 16.9786H84.7121V10.408H89.5993V9.6659H84.7121V3.83744H90.8664V3.1134H81.8522Z" fill="black"/>
<path d="M28.3459 12.4151C29.6129 11.9264 30.518 11.2567 30.5723 11.2024L30.88 10.9671L30.518 10.8403C30.4275 10.8041 28.6174 10.2249 27.0788 10.6231C27.1693 10.5145 27.2598 10.424 27.3503 10.3154C28.364 9.13887 28.9794 8.12523 29.0156 8.08902L29.2871 7.6365L28.7803 7.78131C27.8391 8.03472 26.934 8.32433 26.0652 8.65015C26.4453 7.76321 26.753 6.80387 27.0064 5.75402L27.115 5.3015L26.6987 5.53681C25.7575 6.07983 24.3456 7.05728 23.4406 7.99852C23.8026 6.73146 24.1465 5.3558 24.5266 3.85343L24.6714 3.31041L24.2189 3.63622C23.2595 4.34215 22.3907 5.04809 21.6305 5.73592C21.7029 4.74037 21.721 3.65432 21.721 2.45967V1.86234L21.359 2.33296C21.2685 2.44157 21.178 2.56827 21.0875 2.69498C20.5987 3.31041 20.0738 3.99824 19.6032 4.70417C19.6937 3.00269 19.0783 1.04781 19.0421 0.939202L18.8792 0.540984L18.6438 0.884899C18.5895 0.957302 18.0284 1.78994 17.3949 3.0389C16.9062 1.97095 16.3812 0.993504 15.9287 0.269471L15.7477 -0.0201416L15.5667 0.269471C15.1685 0.903 14.6436 1.89855 14.1548 3.0208C13.5394 1.78994 12.9783 0.957302 12.924 0.884899L12.7068 0.540984L12.5801 0.939202C12.5439 1.04781 11.9284 3.00269 12.0189 4.70417C11.5483 3.99824 11.0234 3.31041 10.5347 2.69498C10.4442 2.56827 10.3537 2.45967 10.2632 2.33296L9.90115 1.86234V2.45967C9.90115 3.76293 9.93735 4.95758 10.0098 6.04363C9.19521 5.3015 8.27207 4.55936 7.22223 3.79913L6.7335 3.43711L6.91451 4.01634C7.05932 4.50506 7.20412 4.95758 7.33083 5.4101C7.60234 6.31514 7.85575 7.14778 8.10917 7.96232C7.22223 7.02108 5.84656 6.06173 4.90532 5.53681L4.489 5.3015L4.59761 5.75402C4.85102 6.80387 5.15873 7.76321 5.53885 8.65015C4.67001 8.34243 3.78307 8.03472 2.82373 7.78131L2.3169 7.6365L2.58842 8.08902C2.60652 8.12523 3.24005 9.13887 4.25369 10.3154C4.3442 10.424 4.4347 10.5145 4.5252 10.6231C2.98663 10.2068 1.17655 10.8041 1.08605 10.8403L0.724033 10.9671L1.03175 11.2024C1.08605 11.2567 1.99109 11.9445 3.25815 12.4151C2.1359 12.5418 1.03175 12.8676 0 13.3564C0 13.3564 0.651629 13.7003 1.50237 13.4288C3.49346 12.7952 5.68366 12.7952 7.76525 13.4831C10.6433 14.4243 13.3403 16.5783 15.5486 19.7459L15.802 20.108L16.0554 19.7459C18.2637 16.5783 20.9426 14.4062 23.8388 13.4831C25.9385 12.7952 28.1287 12.7952 30.1379 13.4469C30.9524 13.7184 31.6221 13.3745 31.6221 13.3745C30.5723 12.8676 29.4681 12.5599 28.3459 12.4151ZM29.9569 11.13C29.4319 11.4739 28.3821 12.0712 27.1512 12.3427C26.4453 12.3427 25.7394 12.397 25.0334 12.5418C25.4497 12.2341 25.8661 11.8721 26.2824 11.4558C27.3865 10.6412 29.1604 10.9309 29.9569 11.13ZM28.3278 8.34243C27.6399 9.33798 25.8842 11.6549 23.8388 12.8314C23.7664 12.8495 23.7121 12.8676 23.6397 12.8857C23.4044 12.9581 23.169 13.0486 22.9156 13.1392C24.1284 11.9807 25.0696 10.6774 25.7937 9.17507C26.6082 8.88546 27.4589 8.61395 28.3278 8.34243ZM21.5943 13.7727C21.2504 13.9537 20.9064 14.1528 20.5806 14.37C21.3952 13.2478 22.0106 12.035 22.5355 10.7136C23.3682 10.2611 24.2551 9.8267 25.2325 9.42848C24.3456 11.0938 23.169 12.5056 21.5943 13.7727ZM26.4634 6.15224C26.21 7.12968 25.8842 8.03472 25.4859 8.88546C24.5085 9.26558 23.5854 9.6819 22.7346 10.1344C22.8432 9.8629 22.9337 9.57329 23.0242 9.28368C23.3682 8.41484 24.9791 7.05728 26.4634 6.15224ZM23.9836 4.30595C23.5311 6.09793 23.1147 7.70891 22.6441 9.15697C22.6441 9.17507 22.6441 9.17507 22.626 9.19317C22.4812 9.62759 22.3364 10.0258 22.1916 10.4421C21.5762 10.786 20.9969 11.1662 20.472 11.5463C21.015 10.3878 21.3952 8.65015 21.5762 6.35135C22.2821 5.66351 23.0785 4.99378 23.9836 4.30595ZM17.232 14.9492C17.2501 14.5329 17.2501 14.1347 17.232 13.7727C17.1415 12.8495 17.5216 11.5463 18.4447 10.062C18.4628 10.0439 18.4628 10.0077 18.4809 9.98961C19.1145 8.99406 19.9833 7.88991 21.1056 6.78577C20.834 9.64569 20.2548 11.5463 19.4041 12.3789C18.4809 13.1935 17.7569 14.0442 17.232 14.9492ZM12.1818 12.3789C11.3673 11.5825 10.8062 9.7905 10.5166 7.12968C11.5302 8.14333 12.4353 9.19317 13.1231 10.2068V10.2249C13.9738 11.5101 14.4626 12.7409 14.3539 13.7727C14.3358 14.1528 14.3358 14.5329 14.3539 14.9673C13.8652 14.0623 13.1231 13.1935 12.1818 12.3789ZM13.4851 10.0258C12.9602 9.06647 13.0688 7.40119 13.7928 5.19289C13.9195 4.81278 14.0643 4.43266 14.2091 4.05254C14.9151 5.60921 15.5848 7.6003 15.5848 9.50089C15.5486 9.60949 15.4943 9.7181 15.44 9.8267C15.1323 10.5326 14.7884 11.3291 14.5712 12.2884C14.372 11.6187 14.01 10.8403 13.4851 10.0258ZM18.1008 9.8629C17.5759 10.7317 17.2139 11.5282 17.0148 12.2522C16.7976 11.2929 16.4536 10.5145 16.1459 9.8267C16.0916 9.7181 16.0554 9.60949 16.0011 9.48279C16.0192 7.5822 16.6709 5.60921 17.3768 4.07064C17.5216 4.43266 17.6483 4.77657 17.775 5.13859C18.5171 7.27449 18.6257 8.92166 18.1008 9.8629ZM21.2866 3.0751C21.2685 4.19735 21.2323 5.22909 21.1599 6.17034C20.2186 7.07538 19.4403 7.96232 18.8067 8.81306C18.8429 8.45104 18.8249 8.05282 18.7886 7.6365C18.8973 6.17034 20.2005 4.46886 21.2866 3.0751ZM18.7524 1.50033C18.9878 2.38727 19.4584 4.46886 18.9878 5.75402C18.861 6.02553 18.7343 6.29704 18.6438 6.55045C18.4266 5.57301 18.0646 4.52316 17.6483 3.54572C18.0646 2.64068 18.4809 1.91665 18.7524 1.50033ZM15.7658 0.794395C16.2002 1.51843 16.7071 2.49587 17.1596 3.54572C16.6166 4.68607 16.0735 6.07983 15.802 7.546C15.5124 6.06173 14.9694 4.66797 14.4263 3.52762C14.8789 2.44157 15.3676 1.48223 15.7658 0.794395ZM12.8516 1.50033C13.105 1.91665 13.5213 2.62258 13.9738 3.52762C13.7566 4.03444 13.5756 4.54126 13.3946 5.06619C13.2136 5.59111 13.0869 6.09793 12.9783 6.56855C12.8878 6.29704 12.7611 6.02553 12.6344 5.75402C12.1637 4.46886 12.6163 2.40537 12.8516 1.50033ZM10.2994 3.0751C11.3854 4.46886 12.6887 6.17034 12.7792 7.6365C12.7249 8.14333 12.7068 8.59585 12.7611 9.01217C12.1456 8.19763 11.3673 7.34689 10.4442 6.47805C10.3718 5.4463 10.3175 4.30595 10.2994 3.0751ZM7.47564 4.50506C8.36258 5.17479 9.23142 5.91693 10.046 6.67716C10.2451 8.81306 10.589 10.4421 11.1139 11.5463C10.589 11.1662 10.0098 10.8041 9.39432 10.4421C8.797 8.93976 8.29017 7.25639 7.69285 5.3015C7.63854 5.02999 7.56614 4.77657 7.47564 4.50506ZM5.14063 6.15224C6.643 7.07538 8.27207 8.45104 8.56169 9.31988C8.65219 9.59139 8.7608 9.8629 8.8513 10.1344C8.00056 9.6819 7.07742 9.26558 6.09998 8.88546C5.71986 8.03472 5.39404 7.12968 5.14063 6.15224ZM9.08661 10.7136C9.62963 12.0531 10.2451 13.2478 11.0415 14.37C10.6976 14.1528 10.3537 13.9356 10.0098 13.7546C8.43498 12.5056 7.25843 11.0938 6.37149 9.41038C7.34893 9.8267 8.25397 10.2611 9.08661 10.7136ZM3.27625 8.34243C4.16319 8.59585 4.99582 8.88546 5.81036 9.19317C6.53439 10.6955 7.47564 11.9807 8.68839 13.1392C8.45308 13.0486 8.21777 12.9581 7.98246 12.8857C7.91006 12.8676 7.83765 12.8495 7.76525 12.8133C5.70176 11.6549 3.94598 9.33798 3.27625 8.34243ZM5.30354 11.4558C5.71986 11.8721 6.13618 12.2341 6.5525 12.5418C5.84656 12.4151 5.14063 12.3427 4.4347 12.3427C3.22195 12.0712 2.154 11.4739 1.62907 11.13C2.44361 10.9309 4.21749 10.6412 5.30354 11.4558ZM12.3267 15.3112C11.1682 14.0261 10.3537 12.6323 9.68394 11.0576C10.4985 11.5463 11.2225 12.0712 11.8741 12.6323C11.9465 12.7047 12.0189 12.759 12.0913 12.8314C13.286 13.9175 14.1367 15.094 14.535 16.3068C14.6255 16.8136 14.7522 17.3385 14.9151 17.8997C14.1005 16.9041 13.2317 16.0534 12.3267 15.3112ZM15.6572 18.8409C14.897 16.7593 14.6979 15.1302 14.7703 13.8089C14.7703 13.7365 14.7884 13.6641 14.7884 13.5736C14.9151 12.1074 15.3857 11.0214 15.802 10.0439C16.2183 11.0214 16.689 12.1074 16.8157 13.5736C16.8157 13.6641 16.8157 13.7365 16.8338 13.8089C16.9062 15.1302 16.7071 16.7593 15.9468 18.8409C15.8925 18.9133 15.8563 18.9676 15.802 19.04C15.7477 18.9676 15.7115 18.9133 15.6572 18.8409ZM16.7071 17.8816C16.87 17.3204 16.9967 16.7955 17.0872 16.2887C17.4854 15.0759 18.3361 13.8994 19.5308 12.8133C19.6032 12.759 19.6756 12.6866 19.7299 12.6323C20.3815 12.0712 21.1056 11.5463 21.9382 11.0395C21.2685 12.6142 20.4539 14.008 19.2774 15.2931C18.3723 16.0534 17.5216 16.9041 16.7071 17.8816Z" fill="black"/>
</g>
<defs>
<clipPath id="clip0">
<rect width="91.0471" height="20.11" fill="white"/>
</clipPath>
</defs>
</svg>
